<?xml version="1.0" encoding="utf-8"?>
<!-- Generator: Adobe Illustrator 16.0.3, SVG Export Plug-In . SVG Version: 6.00 Build 0)  -->
<!DOCTYPE svg PUBLIC "-//W3C//DTD SVG 1.1//EN" "http://www.w3.org/Graphics/SVG/1.1/DTD/svg11.dtd" [
	<!ENTITY ns_flows "http://ns.adobe.com/Flows/1.0/">
	<!ENTITY ns_extend "http://ns.adobe.com/Extensibility/1.0/">
	<!ENTITY ns_ai "http://ns.adobe.com/AdobeIllustrator/10.0/">
	<!ENTITY ns_graphs "http://ns.adobe.com/Graphs/1.0/">
]>
<svg version="1.1" xmlns:x="&ns_extend;" xmlns:i="&ns_ai;" xmlns:graph="&ns_graphs;"
	 xmlns="http://www.w3.org/2000/svg" xmlns:xlink="http://www.w3.org/1999/xlink" xmlns:a="http://ns.adobe.com/AdobeSVGViewerExtensions/3.0/"
	 x="0px" y="0px" width="232.258px" height="232.258px" viewBox="0 0 232.258 232.258"
	 style="enable-background:new 0 0 232.258 232.258;" xml:space="preserve">
<g id="圖層_1">
	<rect x="116.129" y="116.129" style="fill:#F09394;" width="116.129" height="116.129"/>
</g>
<g id="圖層_2">
	<circle style="fill:#F09394;" cx="116.129" cy="116.129" r="116.129"/>
</g>
<g id="圖層_3">
	<g>
		<path style="fill:#FFFFFF;" d="M76.542,196.975V61.636h43.852c16.617,0,27.449,0.678,32.496,2.031
			c7.755,2.031,14.247,6.448,19.479,13.248c5.23,6.801,7.847,15.587,7.847,26.357c0,8.309-1.509,15.294-4.523,20.956
			c-3.017,5.663-6.848,10.109-11.494,13.34c-4.648,3.231-9.371,5.371-14.171,6.417c-6.524,1.292-15.971,1.938-28.342,1.938h-17.818
			v51.052H76.542z M103.868,84.531v38.404h14.956c10.77,0,17.97-0.707,21.603-2.123c3.63-1.416,6.477-3.631,8.539-6.647
			c2.062-3.015,3.093-6.523,3.093-10.524c0-4.923-1.447-8.985-4.339-12.186c-2.894-3.2-6.555-5.2-10.986-6.001
			c-3.263-0.614-9.817-0.923-19.664-0.923H103.868z"/>
	</g>
	<g>
	</g>
	<g>
	</g>
	<g>
	</g>
	<g>
	</g>
	<g>
	</g>
	<g>
	</g>
</g>
</svg>
